<svg width="32" height="32" viewBox="0 0 32 32" fill="none" xmlns="http://www.w3.org/2000/svg">
<g clip-path="url(#clip0_119_3189)">
<path d="M28 13.3333C28 22.6666 16 30.6666 16 30.6666C16 30.6666 4 22.6666 4 13.3333C4 10.1507 5.26428 7.09847 7.51472 4.84803C9.76516 2.59759 12.8174 1.33331 16 1.33331C19.1826 1.33331 22.2348 2.59759 24.4853 4.84803C26.7357 7.09847 28 10.1507 28 13.3333Z" stroke="#EBF2E8" stroke-width="3" stroke-linecap="round" stroke-linejoin="round"/>
<path d="M16 17.3333C18.2091 17.3333 20 15.5425 20 13.3333C20 11.1242 18.2091 9.33331 16 9.33331C13.7909 9.33331 12 11.1242 12 13.3333C12 15.5425 13.7909 17.3333 16 17.3333Z" stroke="#EBF2E8" stroke-width="3" stroke-linecap="round" stroke-linejoin="round"/>
</g>
<defs>
<clipPath id="clip0_119_3189">
<rect width="32" height="32" fill="white"/>
</clipPath>
</defs>
</svg>
