<svg width="118" height="76" viewBox="0 0 118 76" fill="none" xmlns="http://www.w3.org/2000/svg">
<rect width="117.58" height="76" rx="24" fill="black"/>
<g clip-path="url(#clip0_460_2335)">
<path d="M63.6419 30.4069C62.9718 30.4069 62.3485 30.5097 61.7722 30.7152C61.1958 30.9207 60.6708 31.124 60.1972 31.325C59.7236 31.5261 59.3126 31.6266 58.9641 31.6266C58.5977 31.6266 58.1912 31.5306 57.7444 31.3384C57.2976 31.1463 56.8173 30.9564 56.3035 30.7688C55.7897 30.5811 55.2424 30.4873 54.6616 30.4873C53.5625 30.4873 52.5036 30.7867 51.4849 31.3853C50.4662 31.984 49.6308 32.8687 48.9785 34.0392C48.3262 35.2098 48 36.653 48 38.3687C48 39.4409 48.1251 40.5131 48.3753 41.5854C48.6255 42.6577 48.9606 43.6719 49.3806 44.628C49.8005 45.5841 50.2652 46.4286 50.7745 47.1613C51.4358 48.0817 52.0814 48.8725 52.7113 49.5337C53.3413 50.195 54.0718 50.5256 54.9028 50.5256C55.4479 50.5256 55.9215 50.4363 56.3236 50.2576C56.7257 50.0788 57.1524 49.8978 57.6036 49.7147C58.0549 49.5316 58.6201 49.44 59.2992 49.44C59.8175 49.44 60.2508 49.4935 60.5993 49.6007C60.9478 49.7079 61.2673 49.8308 61.5577 49.9694C61.8481 50.1079 62.1541 50.2308 62.4759 50.338C62.7975 50.4452 63.1862 50.4987 63.6419 50.4987C64.2406 50.4987 64.779 50.3402 65.257 50.023C65.7351 49.7058 66.1774 49.297 66.5839 48.7965C66.9906 48.2961 67.386 47.7734 67.7702 47.2283C68.1902 46.6118 68.532 46.0198 68.7956 45.4524C69.0592 44.885 69.2536 44.4203 69.3787 44.0584C69.5038 43.6966 69.5708 43.4977 69.5798 43.462C69.5529 43.453 69.3586 43.3525 68.9967 43.1604C68.6347 42.9683 68.2237 42.6622 67.7635 42.2422C67.3033 41.8222 66.9012 41.2726 66.5572 40.5935C66.2131 39.9145 66.0411 39.0835 66.0411 38.1005C66.0411 37.2427 66.1774 36.5033 66.45 35.8822C66.7225 35.2612 67.0419 34.7474 67.4083 34.3408C67.7747 33.9343 68.1031 33.6237 68.3935 33.4093C68.6839 33.1948 68.8514 33.0742 68.8961 33.0474C68.4493 32.404 67.9623 31.9036 67.4352 31.5462C66.908 31.1888 66.3896 30.9296 65.8803 30.7688C65.371 30.6079 64.9175 30.5074 64.5198 30.4672C64.1222 30.427 63.8296 30.4069 63.6419 30.4069ZM62.7037 28.2355C63.1147 27.7441 63.4498 27.1744 63.7089 26.5266C63.9681 25.8787 64.0976 25.2108 64.0976 24.5227C64.0976 24.3262 64.0842 24.1519 64.0574 24C63.3873 24.0268 62.688 24.2279 61.9598 24.6032C61.2315 24.9785 60.6306 25.4476 60.157 26.0105C59.7728 26.4394 59.4332 26.9756 59.1383 27.619C58.8435 28.2623 58.696 28.9236 58.696 29.6027C58.696 29.7099 58.7027 29.8082 58.7161 29.8976C58.7295 29.9869 58.7407 30.0495 58.7496 30.0852C58.8658 30.112 58.9864 30.1254 59.1115 30.1254C59.7102 30.1254 60.3469 29.9467 61.0215 29.5893C61.6962 29.2318 62.2569 28.7806 62.7037 28.2355Z" fill="white"/>
</g>
<defs>
<clipPath id="clip0_460_2335">
<rect width="21.5798" height="28" fill="white" transform="translate(48 24)"/>
</clipPath>
</defs>
</svg>
