<svg width="380" height="400" viewBox="0 0 380 400" fill="none" xmlns="http://www.w3.org/2000/svg">
<path fill-rule="evenodd" clip-rule="evenodd" d="M211.738 89.4901C216.346 84.0814 219.464 77.4529 218.943 70.0255C217.442 48.625 187.651 53.3328 181.857 64.1339C176.062 74.9351 176.75 102.333 184.24 104.263C187.226 105.033 193.589 103.147 200.065 99.2443L196 128H220L211.738 89.4901Z" fill="#915B3C"/>
<path fill-rule="evenodd" clip-rule="evenodd" d="M213.582 94.3075C216.594 80.9065 225.175 71.7714 223.865 65.7817C222.991 61.7886 220.662 59.3054 216.879 58.3321C214.922 50.4155 208.61 47.0482 197.944 48.2304C181.945 50.0036 172.181 56.6478 176.398 71.2679C180.274 71.2679 184.954 69.866 191.424 72.2679C193.478 73.03 194.946 75.3934 195.83 79.358H198.754C201.592 74.6531 204.391 72.9241 207.149 74.1712C209.908 75.4183 210.535 78.4474 209.03 83.2586L210.471 94.3075H213.582Z" fill="#191847"/>
<path opacity="0.5" fill-rule="evenodd" clip-rule="evenodd" d="M287 253H172C163.163 253 156 260.163 156 269V361C156 369.837 163.163 377 172 377H287C295.837 377 303 369.837 303 361V269C303 260.163 295.837 253 287 253ZM271 281C273.209 281 275 282.791 275 285V345C275 347.209 273.209 349 271 349H188C185.791 349 184 347.209 184 345V285C184 282.791 185.791 281 188 281H271Z" fill="#79BEB3"/>
<path fill-rule="evenodd" clip-rule="evenodd" d="M56.841 372C76.5569 347.924 89.8971 330.075 96.8617 318.454C108.787 298.555 118.547 280.848 121.627 274.084C128.972 257.955 104.718 250.403 99.229 257.926C90.9209 269.312 73.178 305.143 46 365.417L56.841 372Z" fill="#B28B67"/>
<path fill-rule="evenodd" clip-rule="evenodd" d="M97.2424 365L133.935 272.637C141.783 255.8 103.884 244.732 98.1167 252.568C85.0227 270.357 53.9012 340.534 50 345.834L97.2424 365Z" fill="#2F3676"/>
<path fill-rule="evenodd" clip-rule="evenodd" d="M194.967 346.477C187.819 336.051 161.821 300.974 147.661 286.461C143.592 282.291 139.621 278.288 135.866 274.557C124.704 263.47 102.476 282.106 113.618 292.205C141.365 317.355 181.849 351.307 185.231 354.334C189.972 358.577 199.459 353.029 194.967 346.477Z" fill="#915B3C"/>
<path fill-rule="evenodd" clip-rule="evenodd" d="M193.295 341.767C195.758 343.794 197.359 345.45 198.101 346.734C199.002 348.296 200.058 350.725 201.267 354.021C199.456 355.067 183.174 364.467 152.422 382.222C148.73 378.759 148.155 376.07 150.696 374.157C153.238 372.243 155.335 370.629 156.988 369.315L173.848 346.087C174.172 345.64 174.798 345.54 175.244 345.865C175.252 345.87 175.26 345.876 175.267 345.882L178.77 348.579C181.984 348.299 184.382 347.702 185.965 346.788C187.251 346.045 188.727 344.501 190.393 342.154L190.393 342.154C191.033 341.253 192.281 341.041 193.182 341.681C193.221 341.708 193.259 341.737 193.295 341.767Z" fill="#E4E4E4"/>
<path fill-rule="evenodd" clip-rule="evenodd" d="M65.3219 368.402C66.4406 371.388 67 373.623 67 375.106C67 376.909 66.6996 379.54 66.0988 383C64.0068 383 45.2062 383 9.69695 383C8.23126 378.155 9.07734 375.539 12.2352 375.152C15.393 374.766 18.0163 374.417 20.105 374.106L46.32 362.419C46.8244 362.194 47.4157 362.421 47.6405 362.925C47.6444 362.934 47.6481 362.942 47.6517 362.951L49.3368 367.039C52.2601 368.403 54.6356 369.085 56.4633 369.085C57.9483 369.085 59.999 368.485 62.6155 367.286L62.6155 367.285C63.6196 366.825 64.8067 367.266 65.267 368.27C65.2869 368.313 65.3052 368.357 65.3219 368.402Z" fill="#E4E4E4"/>
<path fill-rule="evenodd" clip-rule="evenodd" d="M147.138 277.25C177.635 272.282 198.062 268.884 208.419 267.058C237.943 261.852 246.552 245.965 241.462 211.302H187.066C179.867 213.381 149.79 226.237 96.8325 249.872C87.3045 254.602 89.0789 268.548 90.8204 273.142C90.8915 273.329 106.954 300.853 139.008 355.713L183.506 327.366L147.054 280.59C146.092 278.652 146.12 277.538 147.138 277.25Z" fill="#5C63AB"/>
<path fill-rule="evenodd" clip-rule="evenodd" d="M143.219 198.211L111.32 221.635C102.669 223.97 95.441 226.874 89.6364 230.348C88.2653 231.598 86.6081 234.128 92.2946 233.691C97.981 233.254 103.982 233.049 104.767 234.989C105.551 236.928 102.11 239.248 103.696 241.865C104.754 243.61 109.749 239.235 118.683 228.741L150.27 215.642L143.219 198.211ZM265.692 199.02L244.795 199.102C257.698 240.756 264.664 262.857 265.692 265.406C268.006 271.14 263.109 279.874 261.015 284.567C267.835 287.619 267.109 276.317 275.712 280.319C283.565 283.973 289.538 290.592 298.611 284.994C299.726 284.306 300.949 281.715 297.995 279.69C290.638 274.644 280.035 265.815 278.602 262.908C276.648 258.945 272.345 237.649 265.692 199.02Z" fill="#915B3C"/>
<path fill-rule="evenodd" clip-rule="evenodd" d="M206.305 111.332L197.658 109.849C165.575 137.564 152.397 190.809 113.07 219.015L122.536 230.748C190.76 222.3 207.67 157.355 206.305 111.332Z" fill="#79BEB3"/>
<path fill-rule="evenodd" clip-rule="evenodd" d="M206.305 111.332L197.658 109.849C165.575 137.564 152.397 190.809 113.07 219.015L122.536 230.748C190.76 222.3 207.67 157.355 206.305 111.332Z" fill="black" fill-opacity="0.12"/>
<path fill-rule="evenodd" clip-rule="evenodd" d="M244 220C209.328 220 183.824 220 167.489 220C163.992 220 164.651 214.952 165.157 212.404C170.989 183.004 193.759 151.312 193.759 109.461L215.828 106C234.083 135.358 240.395 171.505 244 220Z" fill="#DDE3E9"/>
<path fill-rule="evenodd" clip-rule="evenodd" d="M243.385 134.858C246.59 133.937 249.129 131.788 251 128.411C259.066 113.856 256.153 105.842 247.533 103.208C238.912 100.574 231.225 106 217.49 106C216.743 106 216.059 106.047 215.437 106.14L208.528 106.535C188.706 173.715 183.239 218.537 192.128 241H252.348C255.916 249.32 259.33 256.32 262.591 262H279C280.544 212.067 268.673 169.686 243.385 134.858Z" fill="#79BEB3"/>
<path fill-rule="evenodd" clip-rule="evenodd" d="M239.235 206.498C237.341 222.344 234.263 233.845 230 241H252.348C248.186 231.295 243.815 219.794 239.235 206.498Z" fill="black" fill-opacity="0.1"/>
</svg>
