<svg width="48" height="48" viewBox="0 0 48 48" fill="none" xmlns="http://www.w3.org/2000/svg">
<path d="M7.02539 30H8.79492V26.4375H12.6035V30H14.373V21.5449H12.6035V24.9785H8.79492V21.5449H7.02539V30ZM16.4238 30H18.1934V21.5449H16.4238V30ZM7.02539 41H8.79492V37.6719H12.2344V36.2715H8.79492V34.0039H12.5625V32.5449H7.02539V41ZM14.1973 41H15.9668V32.5449H14.1973V41Z" fill="#EBF2E8"/>
<path d="M8 2H40V-2H8V2ZM46 8V40H50V8H46ZM40 46H8V50H40V46ZM2 40V8H-2V40H2ZM8 46C4.68629 46 2 43.3137 2 40H-2C-2 45.5228 2.47715 50 8 50V46ZM46 40C46 43.3137 43.3137 46 40 46V50C45.5228 50 50 45.5228 50 40H46ZM40 2C43.3137 2 46 4.68629 46 8H50C50 2.47715 45.5228 -2 40 -2V2ZM8 -2C2.47715 -2 -2 2.47715 -2 8H2C2 4.68629 4.68629 2 8 2V-2Z" fill="#EBF2E8"/>
</svg>
