<svg width="123" height="48" viewBox="0 0 123 48" fill="none" xmlns="http://www.w3.org/2000/svg">
<rect x="4" y="28" width="16" height="16" rx="4" fill="#EBF2E8"/>
<rect x="1" y="1" width="46" height="46" rx="7" stroke="#EBF2E8" stroke-width="2"/>
<path d="M58.1963 30H60.2607V25.8438H64.7041V30H66.7686V20.1357H64.7041V24.1416H60.2607V20.1357H58.1963V30ZM69.1611 30H71.2256V20.1357H69.1611V30ZM73.6182 30H75.6826V26.1172H79.6953V24.4834H75.6826V21.8379H80.0781V20.1357H73.6182V30ZM81.9854 30H84.0498V20.1357H81.9854V30ZM62.3867 44.2529C63.1842 44.2529 63.8906 44.1071 64.5059 43.8154C65.1211 43.5192 65.6178 43.1113 65.9961 42.5918C66.3743 42.0723 66.5999 41.4684 66.6729 40.7803V40.6982H64.6631L64.6494 40.7598C64.5811 41.1107 64.4421 41.4183 64.2324 41.6826C64.0273 41.9424 63.7676 42.1452 63.4531 42.291C63.1432 42.4323 62.79 42.5029 62.3936 42.5029C61.874 42.5029 61.4251 42.3639 61.0469 42.0859C60.6686 41.8079 60.377 41.4115 60.1719 40.8965C59.9714 40.3815 59.8711 39.7731 59.8711 39.0713V39.0576C59.8711 38.3512 59.9714 37.7428 60.1719 37.2324C60.377 36.7174 60.6686 36.3232 61.0469 36.0498C61.4251 35.7718 61.8717 35.6328 62.3867 35.6328C62.7786 35.6328 63.1318 35.7103 63.4463 35.8652C63.7653 36.0202 64.0296 36.2389 64.2393 36.5215C64.4489 36.7995 64.5879 37.123 64.6562 37.4922L64.6631 37.54H66.666V37.4512C66.6022 36.7585 66.3789 36.1432 65.9961 35.6055C65.6133 35.0677 65.1097 34.6462 64.4854 34.3408C63.8656 34.0355 63.166 33.8828 62.3867 33.8828C61.4297 33.8828 60.6048 34.0924 59.9121 34.5117C59.224 34.9264 58.693 35.5212 58.3193 36.2959C57.9456 37.0706 57.7588 37.9912 57.7588 39.0576V39.0713C57.7588 40.1377 57.9456 41.0583 58.3193 41.833C58.693 42.6077 59.2262 43.2048 59.9189 43.624C60.6117 44.0433 61.4342 44.2529 62.3867 44.2529ZM71.7178 44.1572C72.4925 44.1572 73.1556 44.0023 73.707 43.6924C74.263 43.3779 74.6891 42.929 74.9854 42.3457C75.2816 41.7578 75.4297 41.056 75.4297 40.2402V40.2266C75.4297 39.4154 75.2793 38.7181 74.9785 38.1348C74.6777 37.5469 74.2493 37.0957 73.6934 36.7812C73.1419 36.4668 72.4834 36.3096 71.7178 36.3096C70.9521 36.3096 70.2913 36.4691 69.7354 36.7881C69.1839 37.1025 68.7578 37.5514 68.457 38.1348C68.1562 38.7181 68.0059 39.4154 68.0059 40.2266V40.2402C68.0059 41.056 68.154 41.7578 68.4502 42.3457C68.7464 42.929 69.1725 43.3779 69.7285 43.6924C70.2845 44.0023 70.9476 44.1572 71.7178 44.1572ZM71.7178 42.5918C71.3623 42.5918 71.0592 42.5007 70.8086 42.3184C70.5625 42.1315 70.3734 41.8626 70.2412 41.5117C70.1136 41.1608 70.0498 40.737 70.0498 40.2402V40.2266C70.0498 39.7344 70.1159 39.3151 70.248 38.9688C70.3802 38.6178 70.5693 38.349 70.8154 38.1621C71.0661 37.9707 71.3669 37.875 71.7178 37.875C72.0687 37.875 72.3672 37.9707 72.6133 38.1621C72.8639 38.349 73.0553 38.6178 73.1875 38.9688C73.3197 39.3151 73.3857 39.7344 73.3857 40.2266V40.2402C73.3857 40.7324 73.3197 41.154 73.1875 41.5049C73.0553 41.8558 72.8662 42.1247 72.6201 42.3115C72.374 42.4984 72.0732 42.5918 71.7178 42.5918ZM77.0566 44H79.0527V39.7891C79.0527 39.4336 79.1279 39.1283 79.2783 38.873C79.4287 38.6178 79.6429 38.4219 79.9209 38.2852C80.1989 38.1439 80.527 38.0732 80.9053 38.0732C81.0602 38.0732 81.2129 38.0846 81.3633 38.1074C81.5182 38.1257 81.6709 38.153 81.8213 38.1895V36.4463C81.721 36.4189 81.6048 36.3962 81.4727 36.3779C81.3451 36.3597 81.2129 36.3506 81.0762 36.3506C80.5885 36.3506 80.1807 36.4645 79.8525 36.6924C79.5244 36.9157 79.2988 37.2324 79.1758 37.6426H79.0527V36.4736H77.0566V44ZM83.2227 44H85.2188V39.6455C85.2188 39.3037 85.278 39.0075 85.3965 38.7568C85.5195 38.5062 85.6904 38.3125 85.9092 38.1758C86.1325 38.0345 86.3968 37.9639 86.7021 37.9639C87.1761 37.9639 87.5247 38.1006 87.748 38.374C87.9714 38.6475 88.083 39.0508 88.083 39.584V44H90.0791V39.1328C90.0791 38.2305 89.8581 37.5355 89.416 37.0479C88.9785 36.5557 88.3405 36.3096 87.502 36.3096C86.9642 36.3096 86.513 36.4281 86.1484 36.665C85.7839 36.902 85.515 37.2256 85.3418 37.6357H85.2188V36.4736H83.2227V44ZM95.3223 44.1572C95.8737 44.1572 96.3499 44.0889 96.751 43.9521C97.1566 43.8109 97.4938 43.6286 97.7627 43.4053C98.0361 43.182 98.2503 42.9427 98.4053 42.6875C98.5602 42.4277 98.6673 42.1794 98.7266 41.9424L98.7402 41.874H96.8809L96.8604 41.915C96.8148 42.0107 96.7282 42.1178 96.6006 42.2363C96.4775 42.3503 96.3135 42.4505 96.1084 42.5371C95.9033 42.6237 95.6549 42.667 95.3633 42.667C95.0033 42.667 94.6934 42.5872 94.4336 42.4277C94.1738 42.2682 93.9733 42.0381 93.832 41.7373C93.6908 41.4365 93.6201 41.0742 93.6201 40.6504V39.8438C93.6201 39.4062 93.6908 39.0371 93.832 38.7363C93.9779 38.431 94.1738 38.2008 94.4199 38.0459C94.6706 37.8864 94.9554 37.8066 95.2744 37.8066C95.598 37.8066 95.8805 37.8841 96.1221 38.0391C96.3682 38.1895 96.5596 38.415 96.6963 38.7158C96.8376 39.0166 96.9082 39.3926 96.9082 39.8438V40.6436L97.8447 39.4609H92.6426V40.7119H98.8018V40.0898C98.8018 39.3288 98.6582 38.6657 98.3711 38.1006C98.084 37.5355 97.6738 37.0957 97.1406 36.7812C96.6074 36.4668 95.974 36.3096 95.2402 36.3096C94.5111 36.3096 93.8753 36.4714 93.333 36.7949C92.7952 37.1185 92.3783 37.5742 92.082 38.1621C91.7904 38.75 91.6445 39.4427 91.6445 40.2402V40.2471C91.6445 41.0537 91.7926 41.7487 92.0889 42.332C92.3851 42.9154 92.8066 43.3665 93.3535 43.6855C93.9049 44 94.5612 44.1572 95.3223 44.1572ZM100.436 44H102.432V39.7891C102.432 39.4336 102.507 39.1283 102.657 38.873C102.808 38.6178 103.022 38.4219 103.3 38.2852C103.578 38.1439 103.906 38.0732 104.284 38.0732C104.439 38.0732 104.592 38.0846 104.742 38.1074C104.897 38.1257 105.05 38.153 105.2 38.1895V36.4463C105.1 36.4189 104.984 36.3962 104.852 36.3779C104.724 36.3597 104.592 36.3506 104.455 36.3506C103.967 36.3506 103.56 36.4645 103.231 36.6924C102.903 36.9157 102.678 37.2324 102.555 37.6426H102.432V36.4736H100.436V44Z" fill="#EBF2E8"/>
</svg>
